<?xml version="1.0" encoding="UTF-8" standalone="no"?>
<svg
   class="img-fluid"
   id="outputsvg"
   width="2746.9661"
   height="2562.397"
   viewBox="0 0 27469.658 25623.967"
   version="1.1"
   sodipodi:docname="glimpse.svg"
   inkscape:version="1.2.2 (732a01da63, 2022-12-09)"
   inkscape:export-filename="glimpse.png"
   inkscape:export-xdpi="90"
   inkscape:export-ydpi="90"
   xml:space="preserve"
   xmlns:inkscape="http://www.inkscape.org/namespaces/inkscape"
   xmlns:sodipodi="http://sodipodi.sourceforge.net/DTD/sodipodi-0.dtd"
   xmlns="http://www.w3.org/2000/svg"
   xmlns:svg="http://www.w3.org/2000/svg"><defs
     id="defs22"><rect
       x="-54.459206"
       y="529.25146"
       width="602.11938"
       height="140.36668"
       id="rect374" /></defs><sodipodi:namedview
     id="namedview20"
     pagecolor="#ffffff"
     bordercolor="#999999"
     borderopacity="1"
     inkscape:showpageshadow="0"
     inkscape:pageopacity="0"
     inkscape:pagecheckerboard="0"
     inkscape:deskcolor="#d1d1d1"
     showgrid="false"
     inkscape:zoom="0.23046875"
     inkscape:cx="-1677.0169"
     inkscape:cy="2568.678"
     inkscape:window-width="3840"
     inkscape:window-height="2126"
     inkscape:window-x="-11"
     inkscape:window-y="-11"
     inkscape:window-maximized="1"
     inkscape:current-layer="outputsvg" /><text
     xml:space="preserve"
     transform="matrix(148.90352,0,0,148.90352,9065.0692,-60858.715)"
     id="text372"
     style="font-style:normal;font-weight:normal;font-size:40px;line-height:1.25;font-family:sans-serif;white-space:pre;shape-inside:url(#rect374);display:inline;fill:#0580e4;fill-opacity:1;stroke:none"><tspan
       x="-54.458984"
       y="565.64696"
       id="tspan163"><tspan
         style="font-family:Birdman;-inkscape-font-specification:Birdman"
         id="tspan161">glimpse</tspan></tspan></text><g
     id="g180"
     transform="matrix(35.208718,0,0,35.208718,4721.3788,410.25387)"><g
       id="_x37_-windows_media_player_x2C__video"><g
         id="g160"><g
           id="g158"><path
             d="m 464.777,256 c 0,115.617 -93.475,209.339 -208.775,209.339 -115.305,0 -208.778,-93.722 -208.778,-209.339 0,-115.617 93.473,-209.338 208.778,-209.338 115.301,0 208.775,93.721 208.775,209.338 z m 0,0"
             style="fill:#fcfcfc"
             id="path146" /><path
             d="M 338.467,243.32 219.166,168.553 c -4.594,-2.9 -10.439,-3.021 -15.121,-0.421 -4.744,2.667 -7.693,7.661 -7.693,13.104 v 149.529 c 0,5.443 2.949,10.468 7.693,13.098 2.234,1.228 4.736,1.856 7.213,1.856 2.746,0 5.49,-0.751 7.908,-2.275 l 119.301,-74.765 c 4.352,-2.724 7.008,-7.537 7.008,-12.68 0,-5.143 -2.657,-9.961 -7.008,-12.679 z m 0,0"
             style="fill:#2299f8"
             id="path148" /><path
             d="M 77.045,256 H 17.397 C 17.397,124.083 124.441,16.75 256.002,16.75 V 76.562 C 157.31,76.563 77.045,157.042 77.045,256 Z m 0,0"
             style="fill:#f84437"
             id="path150" /><path
             d="m 256.002,495.25 v -59.816 c 98.689,0 178.947,-80.476 178.947,-179.434 h 59.654 c 10e-4,131.915 -107.042,239.25 -238.601,239.25 z m 0,0"
             style="fill:#ffc107"
             id="path152" /><path
             d="M 256.002,495.25 C 124.441,495.25 17.397,387.915 17.397,256 h 59.648 c 0,98.958 80.265,179.434 178.957,179.434 z m 0,0"
             style="fill:#2299f8"
             id="path154" /><path
             d="M 494.604,256 H 434.95 C 434.95,157.042 354.692,76.562 256.003,76.562 V 16.75 c 131.558,0 238.601,107.333 238.601,239.25 z m 0,0"
             style="fill:#5acf5f"
             id="path156" /></g></g></g><g
       id="Layer_1" /></g></svg>
